<svg width="51" height="50" viewBox="0 0 51 50" fill="none" xmlns="http://www.w3.org/2000/svg">
<path d="M25.25 49.2188C38.6289 49.2188 49.4688 38.3789 49.4688 25C49.4688 11.6211 38.6289 0.78125 25.25 0.78125C11.8711 0.78125 1.03125 11.6211 1.03125 25C1.03125 38.3789 11.8711 49.2188 25.25 49.2188ZM25.25 5.46875C36.041 5.46875 44.7812 14.209 44.7812 25C44.7812 35.791 36.041 44.5312 25.25 44.5312C14.459 44.5312 5.71875 35.791 5.71875 25C5.71875 14.209 14.459 5.46875 25.25 5.46875ZM27.2031 37.5H23.2969C22.6523 37.5 22.125 36.9727 22.125 36.3281V25H15.582C14.5371 25 14.0195 23.7402 14.752 22.998L24.4199 13.3301C24.8789 12.8711 25.6211 12.8711 26.0801 13.3301L35.748 22.998C36.4902 23.7402 35.9629 25 34.918 25H28.375V36.3281C28.375 36.9727 27.8477 37.5 27.2031 37.5Z" fill="black"/>
</svg>
