<svg width="45" height="50" viewBox="0 0 45 50" fill="none" xmlns="http://www.w3.org/2000/svg">
<g clip-path="url(#clip0)">
<path d="M26.9219 40.625H29.2656C29.5764 40.625 29.8745 40.5015 30.0943 40.2818C30.314 40.062 30.4375 39.7639 30.4375 39.4531V18.3594C30.4375 18.0486 30.314 17.7505 30.0943 17.5307C29.8745 17.311 29.5764 17.1875 29.2656 17.1875H26.9219C26.6111 17.1875 26.313 17.311 26.0932 17.5307C25.8735 17.7505 25.75 18.0486 25.75 18.3594V39.4531C25.75 39.7639 25.8735 40.062 26.0932 40.2818C26.313 40.5015 26.6111 40.625 26.9219 40.625ZM42.9375 7.8125H34.8896L31.5693 2.27539C31.1526 1.58107 30.5632 1.00653 29.8584 0.60777C29.1537 0.209006 28.3576 -0.000385097 27.5479 5.31685e-07H17.7021C16.8927 -4.77314e-05 16.0971 0.209504 15.3927 0.608252C14.6883 1.007 14.0991 1.58135 13.6826 2.27539L10.3604 7.8125H2.3125C1.8981 7.8125 1.50067 7.97712 1.20765 8.27015C0.91462 8.56317 0.75 8.9606 0.75 9.375L0.75 10.9375C0.75 11.3519 0.91462 11.7493 1.20765 12.0424C1.50067 12.3354 1.8981 12.5 2.3125 12.5H3.875V45.3125C3.875 46.5557 4.36886 47.748 5.24794 48.6271C6.12701 49.5061 7.3193 50 8.5625 50H36.6875C37.9307 50 39.123 49.5061 40.0021 48.6271C40.8811 47.748 41.375 46.5557 41.375 45.3125V12.5H42.9375C43.3519 12.5 43.7493 12.3354 44.0424 12.0424C44.3354 11.7493 44.5 11.3519 44.5 10.9375V9.375C44.5 8.9606 44.3354 8.56317 44.0424 8.27015C43.7493 7.97712 43.3519 7.8125 42.9375 7.8125ZM17.5312 4.97168C17.5835 4.88476 17.6574 4.81288 17.7457 4.76306C17.834 4.71325 17.9338 4.68722 18.0352 4.6875H27.2148C27.3161 4.68738 27.4156 4.7135 27.5038 4.76331C27.5919 4.81311 27.6656 4.8849 27.7178 4.97168L29.4228 7.8125H15.8271L17.5312 4.97168ZM36.6875 45.3125H8.5625V12.5H36.6875V45.3125ZM15.9844 40.625H18.3281C18.6389 40.625 18.937 40.5015 19.1568 40.2818C19.3765 40.062 19.5 39.7639 19.5 39.4531V18.3594C19.5 18.0486 19.3765 17.7505 19.1568 17.5307C18.937 17.311 18.6389 17.1875 18.3281 17.1875H15.9844C15.6736 17.1875 15.3755 17.311 15.1557 17.5307C14.936 17.7505 14.8125 18.0486 14.8125 18.3594V39.4531C14.8125 39.7639 14.936 40.062 15.1557 40.2818C15.3755 40.5015 15.6736 40.625 15.9844 40.625Z" fill="black"/>
</g>
<defs>
<clipPath id="clip0">
<rect width="43.75" height="50" fill="white" transform="translate(0.75)"/>
</clipPath>
</defs>
</svg>
